# AST/ASF file generated using VICON BodyLanguage
# -----------------------------------------------
:version 1.10
:name VICON
:units
  mass 1.0
  length 0.45
  angle deg
:documentation
   .ast/.asf automatically generated from VICON data using
   VICON BodyBuilder and BodyLanguage model FoxedUp or BRILLIANT.MOD
:root
   order TX TY TZ RX RY RZ
   axis XYZ
   position 0 0 0  
   orientation 0 0 0 
:bonedata
  begin
     id 1 
     name lhipjoint
     direction 0.707368 -0.647095 0.284426 
     length 2.60678 
     axis 0 0 0  XYZ
  end
  begin
     id 2 
     name lfemur
     direction 0.34202 -0.939693 0  
     length 6.63812  
     axis 0 0 20  XYZ
    dof rx ry rz
    limits (-160.0 20.0)
           (-70.0 70.0)
           (-60.0 70.0)
  end
  begin
     id 3 
     name ltibia
     direction 0.34202 -0.939693 0   
     length 7.51178   
     axis 0 0 20   XYZ
    dof rx
    limits (-10.0 170.0)
  end
  begin
     id 4 
     name lfoot
     direction 0.121251 -0.333133 0.935051   
     length 1.83716   
     axis -90 7.62852e-016 20   XYZ
    dof rx rz
    limits (-45.0 90.0)
           (-70.0 20.0)
  end
  begin
     id 5 
     name ltoes
     direction 1.53611e-011 -4.21962e-011 1   
     length 0.916133   
     axis -90 7.62852e-016 20   XYZ
    dof rx
    limits (-90.0 20.0)
  end
  begin
     id 6 
     name rhipjoint
     direction -0.692419 -0.660507 0.290321   
     length 2.55385  
     axis 0 0 0  XYZ 
  end
  begin
     id 7 
     name rfemur
     direction -0.34202 -0.939693 0   
     length 7.29079   
     axis 0 0 -20   XYZ
    dof rx ry rz
    limits (-160.0 20.0)
           (-70.0 70.0)
           (-70.0 60.0)
  end
  begin
     id 8 
     name rtibia
     direction -0.34202 -0.939693 0   
     length 7.47143   
     axis 0 0 -20   XYZ
    dof rx
    limits (-10.0 170.0)
 end
 begin
     id 9 
     name rfoot
     direction -0.119907 -0.329441 0.936532   
     length 1.79439  
     axis -90 -7.62852e-016 -20   XYZ
    dof rx rz
    limits (-45.0 90.0)
           (-20.0 70.0)
  end
  begin
     id 10 
     name rtoes
     direction -1.53571e-011 -4.21961e-011 1   
     length 0.896039   
     axis -90 -7.62852e-016 -20   XYZ
    dof rx
    limits (-90.0 20.0)
  end
  begin
     id 11 
     name lowerback
     direction 0.0367721 0.992912 -0.113016   
     length 1.73542   
     axis 0 0 0   XYZ
    dof rx ry rz
    limits (-20.0 45.0)
           (-30.0 30.0)
           (-30.0 30.0)
  end
  begin
     id 12 
     name upperback
     direction -0.000314626 0.990678 0.136227   
     length 1.7514   
     axis 0 0 0   XYZ
    dof rx ry rz
    limits (-20.0 45.0)
           (-30.0 30.0)
           (-30.0 30.0)
  end
  begin
     id 13 
     name thorax
     direction -0.0226159 0.981151 0.191917   
     length 1.71471   
     axis 0 0 0   XYZ
    dof rx ry rz
    limits (-20.0 45.0)
           (-30.0 30.0)
           (-30.0 30.0)
  end
  begin
     id 14 
     name lowerneck
     direction 0.0219333 0.998071 0.0580739   
     length 1.65882   
     axis 0 0 0   XYZ
    dof rx ry rz
    limits (-20.0 45.0)
           (-30.0 30.0)
           (-30.0 30.0)
  end
  begin
     id 15 
     name upperneck
     direction 0.0384529 0.980058 -0.194957   
     length 1.6612   
     axis 0 0 0   XYZ
    dof rx ry rz
    limits (-20.0 45.0)
           (-30.0 30.0)
           (-30.0 30.0)
  end
  begin
     id 16
     name head
     direction 0.00592123 0.997421 -0.0715234  
     length 1.68077  
     axis 0 0 0   XYZ
    dof rx ry rz
    limits (-20.0 45.0)
           (-30.0 30.0)
           (-30.0 30.0)
  end
  begin
     id 17 
     name lclavicle
     direction 0.904803 0.417826 0.0821728  
     length 3.42227  
     axis 0 0 0   XYZ
    dof ry rz
    limits (-20.0 10.0)
           (0.0 20.0)
  end
  begin
     id 18 
     name lhumerus
     direction 1 -4.48965e-011 -2.68786e-027   
     length 5.11878   
     axis -180 -30 -90   XYZ
    dof rx ry rz
    limits (-60.0 90.0)
           (-90.0 90.0)
           (-90.0 90.0)
  end
  begin
     id 19
     name lradius
     direction 1 -4.48965e-011 2.61168e-028   
     length 3.59971   
     axis -180 -30 -90   XYZ
    dof rx
    limits (-10.0 170.0)
  end
  begin
     id 20
     name lwrist
     direction 1 -4.48965e-011 1.58672e-027   
     length 1.79985   
     axis -1.65735e-015 90 90   XYZ
    dof ry
    limits (-180.0 0.0)
 end
  begin
     id 21 
     name lhand
     direction 1 -4.48942e-011 3.17344e-027   
     length 0.62877   
     axis -2.02492e-015 90 90   XYZ
    dof rx rz
    limits (-90.0 90.0)
           (-45.0 45.0)
  end
  begin
     id 22 
     name lfingers
     direction 1 -4.49011e-011 6.34687e-027   
     length 0.506931   
     axis -4.04985e-015 90 90   XYZ
    dof rx
    limits (0.0 90.0)
  end
  begin
     id 23
     name lthumb
     direction 0.707107 -6.34982e-011 0.707107   
     length 0.727854   
     axis -90 45 2.85299e-015   XYZ
    dof rx rz
    limits (-45.0 45.0)
           (-45.0 45.0)
  end
  begin
     id 24 
     name rclavicle
     direction -0.945647 0.32488 0.0143075   
     length 3.52737  
     axis 0 0 0   XYZ 
    dof ry rz
    limits (-10.0 20.0)
           (-20.0 0.0)
  end
  begin
     id 25 
     name rhumerus
     direction -1 -4.48962e-011 1.92182e-027  
     length 5.4902   
     axis -180 30 90   XYZ
    dof rx ry rz
    limits (-90.0 60.0)
           (-90.0 90.0)
           (-90.0 90.0)
  end
  begin
     id 26 
     name rradius
     direction -1 -4.48967e-011 -5.97193e-028   
     length 3.20659   
     axis -180 30 90   XYZ
    dof rx
    limits (-10.0 170.0)
  end
  begin
     id 27 
     name rwrist
     direction -1 -4.48964e-011 1.58672e-027   
     length 1.6033   
     axis -1.65735e-015 -90 -90   XYZ
    dof ry
    limits (-180.0 0.0)
  end
  begin
     id 28
     name rhand
     direction -1 -4.49006e-011 3.17344e-027   
     length 0.691885   
     axis -2.02492e-015 -90 -90   XYZ
    dof rx rz
    limits (-90.0 90.0)
           (-45.0 45.0)
  end
  begin
     id 29
     name rfingers
     direction -1 -4.48908e-011 6.34687e-027   
     length 0.557815   
     axis -4.04985e-015 -90 -90   XYZ
    dof rx
    limits (0.0 90.0)
  end
  begin
     id 30
     name rthumb
     direction -0.707107 -6.34999e-011 0.707107   
     length 0.800915   
     axis -90 -45 -2.85299e-015   XYZ
    dof rx rz
    limits (-45.0 45.0)
           (-45.0 45.0)
  end
:hierarchy
  begin
    root lhipjoint rhipjoint lowerback
    lhipjoint lfemur
    lfemur ltibia
    ltibia lfoot
    lfoot ltoes
    rhipjoint rfemur
    rfemur rtibia
    rtibia rfoot
    rfoot rtoes
    lowerback upperback
    upperback thorax
    thorax lowerneck lclavicle rclavicle
    lowerneck upperneck
    upperneck head
    lclavicle lhumerus
    lhumerus lradius
    lradius lwrist
    lwrist lhand lthumb
    lhand lfingers
    rclavicle rhumerus
    rhumerus rradius
    rradius rwrist
    rwrist rhand rthumb
    rhand rfingers
  end

#!OML:ASF I:\Actors\actors\Patient Classification 1\Patient 1\Session 1\Subject1.ASF
:FULLY-SPECIFIED
:DEGREES
106
root 0.776284 17.4016 9.07958 10.2099 -2.41237 -11.1036
lowerback -0.891075 0.494221 7.85325
upperback -9.52073 1.2243 2.8236
thorax -9.55464 0.0967233 -1.45112
lowerneck -5.69707 -11.3759 -9.76423
upperneck 18.5907 -16.9133 11.4071
head 8.52784 -7.87151 3.62583
rclavicle -1.48592e-014 1.51076e-014
rhumerus -46.4961 -31.7627 -63.0567
rradius 19.1892
rwrist 54.0927
rhand 4.46522 -30.4964
rfingers 7.12502
rthumb 29.8598 -58.109
lclavicle -1.48592e-014 1.51076e-014
lhumerus -48.0913 33.4456 62.8858
lradius 14.3363
lwrist -46.3892
lhand -18.263 -10.2175
lfingers 7.12502
lthumb 8.01653 19.6104
rfemur -5.071 23.6207 26.8761
rtibia 2.35266
rfoot -11.1067 -25.2526
rtoes -0.0721954
lfemur 4.71656 -44.6655 -8.42662
ltibia -4.99723
lfoot -20.728 53.5368
ltoes 10.5035
107
root 0.776721 17.4013 9.07959 10.2128 -2.39245 -11.1142
lowerback -0.866644 0.513101 7.89976
upperback -9.52788 1.25378 2.80505
thorax -9.57468 0.105744 -1.49873
lowerneck -5.77028 -11.3034 -9.49977
upperneck 18.5868 -16.7974 11.2334
head 8.48595 -7.81049 3.54172
rclavicle -2.44505e-014 3.89618e-014
rhumerus -46.4853 -31.5853 -63.264
rradius 19.2766
rwrist 53.7213
rhand 4.35154 -30.5694
rfingers 7.12502
rthumb 29.7513 -58.2015
lclavicle -2.44505e-014 3.89618e-014
lhumerus -47.8835 32.9646 63.3443
lradius 14.4335
lwrist -45.8549
lhand -18.2437 -10.2062
lfingers 7.12502
lthumb 8.0351 19.6211
rfemur -5.07531 23.6015 26.8878
rtibia 2.34694
rfoot -11.0907 -25.2615
rtoes -0.141024
lfemur 4.67898 -44.5834 -8.37993
ltibia -4.99255
lfoot -20.6335 53.4457
ltoes 10.6102
108
root 0.777047 17.401 9.07938 10.2284 -2.38701 -11.1232
lowerback -0.832292 0.524804 7.93874
upperback -9.54693 1.27642 2.80315
thorax -9.6151 0.111903 -1.52381
lowerneck -5.75642 -11.1945 -9.32943
upperneck 18.4846 -16.6312 11.1473
head 8.40649 -7.73121 3.51297
rclavicle -2.00276e-014 1.27222e-014
rhumerus -46.5192 -31.4859 -63.3747
rradius 19.3649
rwrist 53.5641
rhand 4.27903 -30.4325
rfingers 7.12502
rthumb 29.6821 -58.0769
lclavicle -2.00276e-014 1.27222e-014
lhumerus -47.6645 32.3909 63.9034
lradius 14.5506
lwrist -45.1553
lhand -18.2299 -10.3368
lfingers 7.12502
lthumb 8.04844 19.49
rfemur -5.1053 23.6148 26.8893
rtibia 2.3683
rfoot -11.0798 -25.2714
rtoes -0.23251
lfemur 4.647 -44.5644 -8.34192
ltibia -4.99743
lfoot -20.5527 53.4294
ltoes 10.6806
109
root 0.777044 17.4009 9.07955 10.2563 -2.38987 -11.1348
lowerback -0.801714 0.497898 7.96439
upperback -9.55111 1.24965 2.86443
thorax -9.64231 0.0987215 -1.47061
lowerneck -5.95224 -10.9884 -9.30973
upperneck 18.5394 -16.3139 11.0624
head 8.41444 -7.57707 3.51349
rclavicle 2.127e-014 -5.50634e-014
rhumerus -46.3773 -31.0812 -63.7051
rradius 19.5427
rwrist 53.2158
rhand 4.31588 -30.2423
rfingers 7.12502
rthumb 29.7172 -57.8804
lclavicle 2.127e-014 -5.50634e-014
lhumerus -47.5389 32.01 64.4021
lradius 14.697
lwrist -44.4855
lhand -18.1864 -10.504
lfingers 7.12502
lthumb 8.09045 19.3212
rfemur -5.14745 23.6277 26.8909
rtibia 2.38595
rfoot -11.046 -25.2783
rtoes -0.407432
lfemur 4.5904 -44.5318 -8.28657
ltibia -4.98968
lfoot -20.5894 53.3963
ltoes 10.7004
110
root 0.776998 17.4008 9.08028 10.2883 -2.39403 -11.1376
lowerback -0.785988 0.489413 8.0036
upperback -9.55109 1.24534 2.91137
thorax -9.65364 0.0953686 -1.44178
lowerneck -6.37183 -10.816 -9.29629
upperneck 18.805 -16.0567 10.9844
head 8.54258 -7.43623 3.49497
rclavicle -5.56597e-015 -1.37161e-014
rhumerus -46.1066 -30.1875 -64.4766
rradius 19.9215
rwrist 52.2026
rhand 4.45357 -30.3226
rfingers 7.12502
rthumb 29.8486 -57.9372
lclavicle -5.56597e-015 -1.37161e-014
lhumerus -47.3498 31.4707 65.0633
lradius 14.9141
lwrist -43.6746
lhand -18.1151 -10.4534
lfingers 7.12502
lthumb 8.15927 19.369
rfemur -5.19081 23.6085 26.8839
rtibia 2.39212
rfoot -11.0203 -25.2676
rtoes -0.660034
lfemur 4.51865 -44.4367 -8.23278
ltibia -4.97607
lfoot -20.5706 53.3287
ltoes 10.5976
111
root 0.776868 17.4007 9.08154 10.3224 -2.39497 -11.124
lowerback -0.779269 0.513788 8.03724
upperback -9.55357 1.28209 2.92816
thorax -9.65801 0.111353 -1.44505
lowerneck -6.37192 -10.5211 -9.22665
upperneck 18.5399 -15.6416 11.1227
head 8.41195 -7.23077 3.58823
rclavicle 2.90723e-014 -5.36719e-014
rhumerus -45.762 -28.8345 -65.6461
rradius 20.4707
rwrist 50.4992
rhand 4.65738 -30.6015
rfingers 7.12502
rthumb 30.0431 -58.181
lclavicle 2.90723e-014 -5.36719e-014
lhumerus -46.9717 30.5031 66.114
lradius 15.2014
lwrist -42.4882
lhand -18.0386 -10.266
lfingers 7.12502
lthumb 8.23307 19.5536
rfemur -5.23188 23.6475 26.859
rtibia 2.41295
rfoot -11.1052 -25.2953
rtoes -0.496353
lfemur 4.47039 -44.3968 -8.21107
ltibia -4.97705
lfoot -20.5146 53.3069
ltoes 10.4787
112
root 0.775547 17.4 9.08432 10.3538 -2.35725 -11.0906
lowerback -0.78898 0.537604 8.03473
upperback -9.54662 1.31338 2.93609
thorax -9.64178 0.128114 -1.43754
lowerneck -6.50538 -10.2769 -8.94926
upperneck 18.3154 -15.2555 10.9567
head 8.2802 -7.04329 3.53702
rclavicle -6.70898e-015 -2.04748e-014
rhumerus -45.3597 -27.0207 -67.1843
rradius 21.2157
rwrist 48.1937
rhand 4.90535 -30.8323
rfingers 7.12502
rthumb 30.2797 -58.3685
lclavicle -6.70898e-015 -2.04748e-014
lhumerus -46.4356 29.1572 67.5052
lradius 15.5613
lwrist -40.8707
lhand -17.9574 -10.2289
lfingers 7.12502
lthumb 8.31148 19.5876
rfemur -5.24851 23.6873 26.82
rtibia 2.40563
rfoot -11.158 -25.3733
rtoes 0.0762534
lfemur 4.42256 -44.396 -8.19746
ltibia -4.98795
lfoot -20.4569 53.2595
ltoes 10.395
113
root 0.772969 17.3992 9.08805 10.3685 -2.26851 -11.0712
lowerback -0.818815 0.546838 8.03178
upperback -9.50926 1.32089 2.94772
thorax -9.58118 0.135548 -1.42447
lowerneck -6.77197 -10.0767 -8.51899
upperneck 18.1623 -14.9097 10.581
head 8.17402 -6.8748 3.38021
rclavicle 4.87022e-015 -2.14687e-014
rhumerus -44.8688 -24.5887 -69.2159
rradius 22.264
rwrist 45.1468
rhand 5.27848 -31.1982
rfingers 7.12502
rthumb 30.6356 -58.6685
lclavicle 4.87022e-015 -2.14687e-014
lhumerus -45.8296 27.5812 69.0839
lradius 16.0215
lwrist -38.9127
lhand -17.7769 -10.2118
lfingers 7.12502
lthumb 8.48565 19.5977
rfemur -5.22597 23.7359 26.8194
rtibia 2.37242
rfoot -11.1795 -25.5172
rtoes 0.503076
lfemur 4.35817 -44.3591 -8.13714
ltibia -5.00865
lfoot -20.2538 53.1725
ltoes 10.1298
114
root 0.771094 17.399 9.09127 10.3606 -2.15824 -11.1011
lowerback -0.835843 0.582132 8.10277
upperback -9.46328 1.36554 2.92961
thorax -9.51486 0.15416 -1.48672
lowerneck -7.01331 -9.86848 -8.02744
upperneck 18.0145 -14.5825 10.2752
head 8.07122 -6.70665 3.23578
rclavicle -5.66536e-015 6.75868e-015
rhumerus -44.4959 -21.7253 -71.5728
rradius 23.6645
rwrist 41.4781
rhand 5.72495 -31.829
rfingers 7.12502
rthumb 31.0612 -59.2188
lclavicle -5.66536e-015 6.75868e-015
lhumerus -45.1709 25.5172 70.9638
lradius 16.6565
lwrist -36.4871
lhand -17.4995 -10.1484
lfingers 7.12502
lthumb 8.75339 19.6501
rfemur -5.18736 23.7606 26.8845
rtibia 2.36484
rfoot -11.2436 -25.6383
rtoes 0.550581
lfemur 4.32212 -44.3468 -8.04725
ltibia -5.03504
lfoot -19.9661 53.1368
ltoes 9.81304
115
root 0.76341 17.4031 9.09805 10.4149 -2.10037 -10.8799
lowerback -0.967685 0.646205 7.82364
upperback -9.45289 1.41696 2.82777
thorax -9.4156 0.200713 -1.44442
lowerneck -7.18415 -9.62683 -7.57193
upperneck 17.8183 -14.2455 10.1575
head 7.95931 -6.525 3.16291
rclavicle 1.49089e-014 -5.30755e-014
rhumerus -44.4581 -18.6251 -74.0345
rradius 25.5155
rwrist 37.511
rhand 6.18015 -32.5173
rfingers 7.12502
rthumb 31.495 -59.8233
lclavicle 1.49089e-014 -5.30755e-014
lhumerus -44.6211 22.9772 73.0523
lradius 17.5973
lwrist -33.6912
lhand -16.9568 -10.2048
lfingers 7.12502
lthumb 9.27703 19.5711
rfemur -5.28006 23.8847 26.6092
rtibia 2.42448
rfoot -11.3541 -25.837
rtoes 0.51905
lfemur 4.20895 -44.5558 -8.21138
ltibia -5.00269
lfoot -19.9899 53.2842
ltoes 9.82899
116
root 0.763778 17.4034 9.10127 10.4021 -1.93723 -10.8901
lowerback -0.945135 0.664769 7.9424
upperback -9.41098 1.44535 2.80162
thorax -9.37885 0.206116 -1.54051
lowerneck -7.51666 -9.36375 -7.20942
upperneck 17.7158 -13.8626 10.0039
head 7.90962 -6.32196 3.08888
rclavicle 2.4699e-014 4.37326e-015
rhumerus -44.667 -15.4513 -76.3741
rradius 27.8515
rwrist 33.6082
rhand 6.84678 -33.1595
rfingers 7.12502
rthumb 32.1298 -60.3393
lclavicle 2.4699e-014 4.37326e-015
lhumerus -44.2719 20.5498 75.0873
lradius 18.8375
lwrist -30.964
lhand -16.1404 -10.2861
lfingers 7.12502
lthumb 10.0647 19.4532
rfemur -5.29361 23.7052 26.6356
rtibia 2.50018
rfoot -11.4162 -25.8025
rtoes 0.281882
lfemur 4.13063 -44.5848 -8.14317
ltibia -4.96172
lfoot -19.7569 53.2036
ltoes 9.51849
